<svg width="104" height="105" viewBox="0 0 104 105" fill="none" xmlns="http://www.w3.org/2000/svg">
<path d="M86.5054 43.0609C86.508 42.914 86.511 42.7674 86.511 42.6201C86.511 28.5839 75.1323 17.2053 61.0961 17.2053C49.0001 17.2053 38.879 25.6557 36.3115 36.975C33.9174 35.6348 31.1597 34.8673 28.2209 34.8673C19.0511 34.8673 11.6177 42.301 11.6177 51.4705C11.6177 51.8453 11.6346 52.2158 11.659 52.5845C4.8515 55.1115 0 61.6639 0 69.351C0 79.226 8.00541 87.2314 17.8804 87.2314H81.6494C93.9932 87.2314 104 77.2246 104 64.8808C104 54.2046 96.5142 45.2783 86.5054 43.0609Z" fill="#1EA6C6"/>
</svg>
